# xmcd
#
# Track frame offsets:
#	150
#	16388
#	31177
#	43868
#	56433
#	68151
#	81074
#	93048
#	106603
#	118094
#	129678
#	141981
#	152522
#	164825
#	176057
#	183758
#	194725
#	204280
#	215892
#	226870
#	239344
#	250668
#	261996
#	272324
#	281091
#	291708
#	300755
#	313217
#
# Disc length: 4311 seconds
#
# Revision: 1
# Processed by: cddbd v1.5.2PL0 Copyright (c) Steve Scherf et al.
# Submitted via: audiograbber 1.81.03
#
DISCID=9610d51c
DTITLE=Best Of The Rest - Blazing Bluegrass
DYEAR=2005
DGENRE=Bluegrass
TTITLE0=Blue Sky Boys - Story Of The Knoxville Girl
TTITLE1=Blue Sky Boys - In The Hills Of Roane County
TTITLE2=Wade`Mainer - Little Birdie
TTITLE3=Wade`Mainer And Trio - The`Girl I Left In Sunny Tennessee
TTITLE4=JE`Mainer's Mountaineers - Lonely Tombs
TTITLE5=Bailey Brothers - Have You Forgotten
TTITLE6=Bailey Brothers - Beautiful Brown Eyes
TTITLE7=Bailey Brothers - Heart's Hall Of Fame
TTITLE8=Tommy Magness - When I Safely Reach The Other Shore
TTITLE9=Tommy Magness - Little Country Preacher
TTITLE10=Reno And Smiley - Crazy Finger Blues
TTITLE11=Reno And Smiley - I'm Gone Long Gone
TTITLE12=Reno And Smiley - I'm The Talk Of The Town
TTITLE13=Reno And Smiley - There's Another Baby Waiting For Me Down The Ling
TTITLE14=Reno And Smiley - Tennessee Cut-up Breakdown
TTITLE15=Jim And Jesse - I'll Wash Your Love From My Heart
TTITLE16=Jim And Jesse - Air Mail Special
TTITLE17=Jimmie`Skinner - Doing My Time
TTITLE18=Jimmie`Skinner - Ready To Go Home
TTITLE19=Mattie, Martha And Minnie - Can't Live With Em
TTITLE20=Jim`Eanes - Wiggle Worm Wiggle
TTITLE21=Shenandoah Vally Boys - Riding The Waves
TTITLE22=Jimmy`Martin - My Lonely Heart
TTITLE23=Jimmy`Martin]p[Osborne Brothers - She's Just A Cute Thing
TTITLE24=Jimmy`Martin]p[Osborne Brothers - Blue Eyed Darling
TTITLE25=Jimmy`Martin - Save It Save It
TTITLE26=Hodges Brothers - It Won't Be Long
TTITLE27=McCormick Brothers - Banjo Twist
EXTD=
EXTT0=
EXTT1=
EXTT2=
EXTT3=
EXTT4=
EXTT5=
EXTT6=
EXTT7=
EXTT8=
EXTT9=
EXTT10=
EXTT11=
EXTT12=
EXTT13=
EXTT14=
EXTT15=
EXTT16=
EXTT17=
EXTT18=
EXTT19=
EXTT20=
EXTT21=
EXTT22=
EXTT23=
EXTT24=
EXTT25=
EXTT26=
EXTT27=
PLAYORDER=
